<?xml version="1.0" encoding="UTF-8"?>
<svg xmlns="http://www.w3.org/2000/svg" xmlns:xlink="http://www.w3.org/1999/xlink" width="300px" height="300px" viewBox="0 0 300 300" version="1.1">
<g id="surface1">
<path style=" stroke:none;fill-rule:nonzero;fill:rgb(46.666667%,31.37255%,98.823529%);fill-opacity:1;" d="M 189.058594 240.015625 C 178.722656 246.03125 167.757812 250.152344 156.042969 252.019531 C 150.59375 252.886719 145.042969 253.152344 139.523438 253.503906 C 136.269531 253.710938 132.988281 253.550781 129.71875 253.546875 C 127.195312 253.542969 126.40625 252.777344 126.402344 250.285156 C 126.390625 238.203125 126.386719 226.125 126.382812 214.042969 C 126.382812 187.769531 126.382812 161.492188 126.382812 135.21875 C 126.382812 127.539062 131.472656 121.324219 138.824219 120.007812 C 148.082031 118.351562 156.519531 125.378906 156.523438 134.777344 C 156.523438 162.207031 156.515625 189.636719 156.507812 217.066406 C 156.507812 217.226562 156.507812 217.386719 156.507812 217.546875 C 156.511719 220.085938 156.800781 220.292969 159.183594 219.453125 C 171.824219 215.007812 182.441406 207.628906 190.90625 197.253906 C 199.84375 186.296875 205.308594 173.761719 207.472656 159.785156 C 210.050781 143.136719 207.710938 127.214844 200.152344 112.164062 C 192.695312 97.3125 181.464844 86.09375 166.664062 78.5 C 156.140625 73.105469 144.921875 70.621094 133.125 70.621094 C 120.25 70.625 107.371094 70.628906 94.492188 70.625 C 89.011719 70.621094 84.664062 68.335938 81.648438 63.808594 C 78.28125 58.757812 77.9375 53.320312 80.671875 47.914062 C 83.417969 42.492188 88.003906 39.496094 94.109375 39.453125 C 109.695312 39.351562 125.289062 39.234375 140.875 39.488281 C 155.523438 39.722656 169.367188 43.503906 182.371094 50.265625 C 202.371094 60.671875 217.410156 76.070312 227.964844 95.902344 C 233.765625 106.796875 237.460938 118.394531 239.273438 130.613281 C 240.59375 139.527344 240.988281 148.464844 240.125 157.421875 C 238.375 175.53125 232.84375 192.359375 222.824219 207.648438 C 214.0625 221.015625 202.910156 231.851562 189.058594 240.015625 Z M 189.058594 240.015625 "/>
<path style=" stroke:none;fill-rule:nonzero;fill:rgb(46.666667%,31.37255%,98.823529%);fill-opacity:1;" d="M 109.34375 251.441406 C 109.007812 252.964844 108.246094 253.542969 106.53125 253.546875 C 99.355469 253.550781 92.183594 253.546875 85.007812 253.546875 C 84.011719 253.546875 83.015625 253.570312 82.019531 253.535156 C 80.3125 253.480469 79.390625 252.527344 79.390625 250.808594 C 79.390625 223.945312 79.371094 197.085938 79.40625 170.222656 C 79.417969 162.289062 86.226562 155.820312 94.191406 155.679688 C 101.246094 155.550781 107.84375 160.511719 109.226562 167.984375 C 109.3125 168.449219 109.320312 168.933594 109.277344 169.582031 C 109.160156 170.109375 109.097656 170.460938 109.097656 170.816406 C 109.089844 197.28125 109.089844 223.746094 109.101562 250.210938 C 109.101562 250.621094 109.261719 251.03125 109.34375 251.441406 Z M 109.34375 251.441406 "/>
<path style=" stroke:none;fill-rule:nonzero;fill:rgb(40.392157%,25.882354%,98.431373%);fill-opacity:1;" d="M 109.371094 251.332031 C 109.261719 251.03125 109.101562 250.621094 109.101562 250.210938 C 109.089844 223.746094 109.089844 197.28125 109.097656 170.816406 C 109.097656 170.460938 109.160156 170.109375 109.261719 169.683594 C 109.355469 173.753906 109.394531 177.898438 109.398438 182.039062 C 109.402344 205.097656 109.398438 228.160156 109.371094 251.332031 Z M 109.371094 251.332031 "/>
</g>
</svg>
